<?xml version="1.0" encoding="utf-8"?>
<!-- Generator: Adobe Illustrator 18.1.0, SVG Export Plug-In . SVG Version: 6.00 Build 0)  -->
<!DOCTYPE svg PUBLIC "-//W3C//DTD SVG 1.1//EN" "http://www.w3.org/Graphics/SVG/1.1/DTD/svg11.dtd">
<svg version="1.1" id="Livello_1" xmlns="http://www.w3.org/2000/svg" xmlns:xlink="http://www.w3.org/1999/xlink" x="0px" y="0px"
	 viewBox="-561.704 -822.296 413.447 556.734" enable-background="new -561.704 -822.296 413.447 556.734" xml:space="preserve">
<g opacity="0.9">
	<path fill="#FFFFFF" d="M-287.44-488.442c7.983,0,14.357-1.36,19.132-4.089c4.77-2.725,8.37-7.106,10.807-13.144
		c2.433-6.033,3.943-13.824,4.527-23.367c0.584-9.538,0.876-20.929,0.876-34.174h102.23v171.162h-411.549v-96.388l203.292-237.466
		h-58.417c-7.987,0-14.413,1.415-19.278,4.235c-4.869,2.824-8.47,7.206-10.807,13.144c-2.337,5.943-3.797,13.728-4.381,23.367
		c-0.584,9.639-0.876,20.985-0.876,34.028h-102.23v-171.162h404.247v96.388l-203.292,237.466H-287.44z"/>
	<g>
		<path fill="#FFFFFF" d="M-521.803-340.598c-2.531,0-4.702,0.186-6.514,0.558c-1.812,0.372-3.363,0.807-4.653,1.303
			c-1.291,0.497-2.358,1.055-3.201,1.675c-0.845,0.621-1.589,1.18-2.233,1.675l0.744,0.744c0.942-0.495,1.973-0.992,3.089-1.489
			c1.117-0.495,2.543-0.744,4.28-0.744c2.928,0,5.459,0.956,7.593,2.866c2.133,1.911,3.201,4.95,3.201,9.119
			c0,3.971-1.626,7.159-4.876,9.566c-3.251,2.408-7.606,3.61-13.064,3.61c-5.211,0-9.368-1.5-12.469-4.504
			c-3.102-3.002-4.653-7.258-4.653-12.767c0-3.026,0.843-6.041,2.531-9.045c1.686-3.002,4.305-5.695,7.854-8.077
			c3.547-2.382,8.064-4.342,13.548-5.881c5.483-1.538,12.097-2.308,19.839-2.308c9.231,0,16.774,0.869,22.63,2.605
			c5.855,1.738,10.409,3.971,13.66,6.7c3.25,2.73,5.483,5.832,6.7,9.305c1.216,3.474,1.824,6.973,1.824,10.496v29.107
			c0,4.516,0.149,7.581,0.447,9.194c0.298,1.613,1.414,2.419,3.35,2.419c1.538,0,2.617-0.732,3.238-2.196
			c0.62-1.463,0.931-3.983,0.931-7.556v-9.305h8.486v9.454c0,4.466-0.372,8.425-1.117,11.873c-0.744,3.45-2.159,6.402-4.243,8.859
			c-2.084,2.457-4.913,4.318-8.486,5.583s-8.14,1.898-13.697,1.898c-5.013,0-9.169-0.534-12.469-1.6
			c-3.301-1.068-5.918-2.394-7.854-3.983c-1.935-1.588-3.313-3.238-4.132-4.95c-0.819-1.712-1.228-3.238-1.228-4.578h-1.191
			c-0.298,2.036-1.154,3.971-2.568,5.806c-1.414,1.836-3.376,3.462-5.881,4.876c-2.506,1.414-5.509,2.556-9.007,3.424
			c-3.499,0.868-7.481,1.303-11.948,1.303c-4.269,0-8.151-0.409-11.65-1.228c-3.499-0.819-6.476-2.11-8.933-3.871
			c-2.457-1.761-4.367-4.044-5.732-6.849c-1.366-2.803-2.047-6.141-2.047-10.012c0-4.764,1.34-8.524,4.02-11.278
			s6.054-4.938,10.124-6.551c4.069-1.612,8.498-2.928,13.288-3.945c4.789-1.016,9.218-2.245,13.288-3.685
			c4.069-1.439,7.444-3.3,10.124-5.583c2.68-2.282,4.02-5.509,4.02-9.677c0-3.722-1.166-6.711-3.499-8.97
			C-512.672-339.469-516.493-340.598-521.803-340.598z M-506.84-308.365c-1.092,1.589-2.457,2.866-4.094,3.834
			c-1.638,0.968-3.214,1.911-4.727,2.829c-1.515,0.919-2.829,2.01-3.945,3.275c-1.117,1.266-1.675,2.966-1.675,5.099
			c0,1.638,0.447,3.115,1.34,4.429c0.893,1.315,2.63,1.973,5.211,1.973c2.332,0,4.23-0.905,5.695-2.717
			c1.463-1.811,2.196-4.355,2.196-7.63V-308.365z"/>
		<path fill="#FFFFFF" d="M-392.647-378.563v73.995c0,3.325,0.819,5.497,2.457,6.514c1.638,1.018,3.722,1.526,6.253,1.526h2.01
			v27.618h-62.68v-27.618h2.903c2.63,0,4.578-0.83,5.844-2.494c1.266-1.662,1.898-3.462,1.898-5.397v-38.114
			c0-2.878-0.906-4.999-2.717-6.365c-1.812-1.365-3.908-2.047-6.29-2.047h-1.638v-27.618H-392.647z"/>
		<path fill="#FFFFFF" d="M-298.702-353.551c11.364,0,20.248,3.685,26.65,11.055s9.603,18.176,9.603,32.419
			c0,14.244-3.35,25.075-10.05,32.494c-6.7,7.42-15.906,11.129-27.618,11.129c-4.169,0-7.829-0.385-10.98-1.154
			c-3.152-0.77-5.968-1.761-8.449-2.978c-2.482-1.216-4.74-2.617-6.774-4.206c-2.036-1.588-4.02-3.175-5.955-4.764h-1.042
			l-2.605,10.645h-31.563v-73.623c0-2.878-0.919-4.999-2.754-6.365c-1.836-1.365-3.921-2.047-6.253-2.047h-1.638v-27.618h51.513
			v28.362v13.623h1.191c0.744-2.133,1.774-4.217,3.089-6.253c1.314-2.034,3.039-3.845,5.174-5.434
			c2.133-1.588,4.727-2.866,7.779-3.834S-302.772-353.551-298.702-353.551z M-326.618-293.179c0.793,1.34,2.332,2.395,4.615,3.164
			c2.282,0.77,4.392,1.154,6.328,1.154c2.233,0,4.044-0.558,5.434-1.675c1.389-1.117,2.494-2.617,3.313-4.504
			c0.819-1.886,1.377-4.069,1.675-6.551c0.298-2.481,0.447-5.062,0.447-7.742c0-2.63-0.149-5.136-0.447-7.519
			s-0.856-4.466-1.675-6.253s-1.948-3.188-3.387-4.206c-1.44-1.017-3.275-1.526-5.509-1.526s-4.032,0.51-5.397,1.526
			c-1.366,1.018-2.457,2.419-3.275,4.206c-0.819,1.787-1.377,3.871-1.675,6.253c-0.298,2.382-0.447,4.889-0.447,7.519V-293.179z"/>
		<path fill="#FFFFFF" d="M-255.601-310.077c0-7.295,1.266-13.697,3.797-19.206s6.141-10.111,10.831-13.809
			c4.69-3.696,10.335-6.488,16.935-8.375c6.6-1.886,13.969-2.829,22.109-2.829c8.139,0,15.508,0.943,22.109,2.829
			c6.6,1.887,12.233,4.678,16.898,8.375c4.664,3.697,8.275,8.3,10.831,13.809c2.556,5.509,3.834,11.911,3.834,19.206
			c0,7.196-1.278,13.574-3.834,19.131c-2.557,5.559-6.167,10.211-10.831,13.958c-4.665,3.748-10.299,6.564-16.898,8.449
			c-6.601,1.886-13.97,2.829-22.109,2.829c-8.14,0-15.509-0.943-22.109-2.829c-6.601-1.886-12.246-4.701-16.935-8.449
			c-4.69-3.747-8.3-8.399-10.831-13.958C-254.335-296.503-255.601-302.881-255.601-310.077z M-213.244-310.077
			c0,4.169,0.186,7.705,0.558,10.608c0.372,2.903,0.979,5.237,1.824,6.997c0.843,1.762,1.984,3.052,3.424,3.871
			c1.439,0.819,3.275,1.228,5.509,1.228c2.233,0,4.057-0.409,5.471-1.228c1.414-0.819,2.556-2.109,3.424-3.871
			c0.868-1.761,1.476-4.094,1.824-6.997c0.347-2.903,0.521-6.439,0.521-10.608c0-8.337-0.782-14.181-2.345-17.531
			c-1.563-3.35-4.529-5.025-8.896-5.025c-2.233,0-4.07,0.385-5.509,1.154c-1.44,0.77-2.581,2.036-3.424,3.797
			c-0.845,1.762-1.452,4.094-1.824,6.997C-213.058-317.782-213.244-314.246-213.244-310.077z"/>
	</g>
</g>
</svg>
